<?xml version="1.0" standalone="no"?><!DOCTYPE svg PUBLIC "-//W3C//DTD SVG 1.1//EN" "http://www.w3.org/Graphics/SVG/1.1/DTD/svg11.dtd"><svg t="1684158527152" class="icon" viewBox="0 0 1024 1024" version="1.1" xmlns="http://www.w3.org/2000/svg" p-id="15155" xmlns:xlink="http://www.w3.org/1999/xlink" width="200" height="200"><path d="M852.59 236.51H171.41c-41.8 0-75.69 33.89-75.69 75.69v144.73c0 28.02 15.22 52.47 37.84 65.56v-13.17c0-42.58 34.52-77.11 77.11-77.11h602.64c42.59 0 77.11 34.52 77.11 77.11v13.17c22.62-13.09 37.84-37.54 37.84-65.56V312.19c0.01-41.8-33.87-75.68-75.67-75.68M890.43 522.49c-11.13 6.44-24.06 10.13-37.84 10.13H171.41c-13.78 0-26.71-3.69-37.84-10.13V884.9c0 42.59 34.52 77.11 77.11 77.11h602.64c42.59 0 77.11-34.52 77.11-77.11V522.49" fill="#4381F1" p-id="15156"></path><path d="M813.32 432.2H210.68c-42.58 0-77.11 34.52-77.11 77.11v13.17c11.13 6.44 24.06 10.13 37.84 10.13h681.17c13.78 0 26.71-3.69 37.84-10.13v-13.17c0.01-42.58-34.51-77.11-77.1-77.11" fill="#1D68EE" p-id="15157"></path><path d="M890.59 509.3v13.24c-10.97 6.43-24.22 10.22-37.84 10.22H171.58c-14 0-26.87-3.4-37.84-9.84V509.3c0-42.77 34.44-77.2 76.82-77.2H813.4c42.38 0 77.19 34.44 77.19 77.2z" fill="#0C2E97" p-id="15158"></path><path d="M890.59 509.3v13.24c-10.97 6.43-24.22 10.22-37.84 10.22H171.58c-14 0-26.87-3.4-37.84-9.84V509.3c0-42.77 34.44-77.2 76.82-77.2H813.4c42.38 0 77.19 34.44 77.19 77.2z" fill="#0C2E97" p-id="15159"></path><path d="M274.69 236.59h75.69v43.14c0 20.82-17.03 37.84-37.84 37.84-21.19 0-37.84-17.03-37.84-37.84v-43.14zM749.62 236.59v43.14c0 20.82-17.03 37.84-37.84 37.84-21.19 0-37.84-17.03-37.84-37.84v-43.14h75.68z" fill="#1AADF9" p-id="15160"></path><path d="M711.54 317.64c-20.9 0-37.84-16.94-37.84-37.84V167.54c0-16.46-13.4-29.85-29.86-29.85H380.01c-16.46 0-29.86 13.39-29.86 29.85V279.8c0 20.9-16.94 37.84-37.84 37.84-20.9 0-37.84-16.94-37.84-37.84V167.54C274.46 109.34 321.8 62 380.01 62h263.83c58.21 0 105.55 47.34 105.55 105.54V279.8c-0.01 20.9-16.95 37.84-37.85 37.84z" fill="#39E2A0" p-id="15161"></path><path d="M274.61 236.59h75.69v43.14c0 20.82-17.03 37.84-37.84 37.84-21.19 0-37.84-17.03-37.84-37.84v-43.14zM749.54 236.59v43.14c0 20.82-17.03 37.84-37.84 37.84-21.19 0-37.84-17.03-37.84-37.84v-43.14h75.68z" fill="#0C2E97" p-id="15162"></path><path d="M507.62 829.8c-10.47 0-20.93-4-28.92-11.99l-78.74-78.74c-15.98-15.98-15.98-41.87 0-57.85 15.98-15.98 41.87-15.98 57.85 0l49.82 49.82 119.81-119.81c15.98-15.98 41.87-15.98 57.85 0 15.98 15.98 15.98 41.87 0 57.85L536.54 817.82c-7.99 7.99-18.46 11.98-28.92 11.98z" fill="#FFFFFF" p-id="15163"></path></svg>